<svg width="18" height="18" viewBox="0 0 18 18" fill="none" xmlns="http://www.w3.org/2000/svg">
<path d="M9.00586 0C10.9294 -1.03755e-05 12.4371 0.000100341 13.6133 0.158203C14.8172 0.32007 15.768 0.657645 16.5137 1.40332C17.2592 2.14891 17.5969 3.09902 17.7588 4.30273C17.9169 5.4789 17.917 6.98667 17.917 8.91016V9.00586C17.917 10.9293 17.9169 12.4371 17.7588 13.6133C17.5969 14.8172 17.2593 15.768 16.5137 16.5137C15.768 17.2593 14.8172 17.5969 13.6133 17.7588C12.4371 17.9169 10.9293 17.917 9.00586 17.917H8.91016C6.98667 17.917 5.4789 17.9169 4.30273 17.7588C3.09902 17.5969 2.14891 17.2592 1.40332 16.5137C0.657645 15.768 0.32007 14.8172 0.158203 13.6133C0.000100341 12.4371 -1.03755e-05 10.9294 0 9.00586V8.91016C-1.03748e-05 6.98668 7.2132e-05 5.4789 0.158203 4.30273C0.320088 3.09896 0.657719 2.14892 1.40332 1.40332C2.14892 0.657719 3.09896 0.320088 4.30273 0.158203C5.4789 7.21581e-05 6.98668 -1.03748e-05 8.91016 0H9.00586ZM8.95801 1.25C6.97633 1.25 5.55298 1.25182 4.46973 1.39746C3.40439 1.54069 2.76182 1.8124 2.28711 2.28711C1.8124 2.76182 1.54069 3.40439 1.39746 4.46973C1.25182 5.55298 1.25 6.97633 1.25 8.95801C1.25 10.9399 1.25181 12.364 1.39746 13.4473C1.54067 14.5122 1.81264 15.1543 2.28711 15.6289C2.76182 16.1036 3.40439 16.3763 4.46973 16.5195C5.55298 16.6652 6.97636 16.667 8.95801 16.667C10.9399 16.667 12.364 16.6652 13.4473 16.5195C14.5124 16.3763 15.1542 16.1036 15.6289 15.6289C16.1036 15.1542 16.3763 14.5124 16.5195 13.4473C16.6652 12.364 16.667 10.9399 16.667 8.95801C16.667 6.97636 16.6652 5.55298 16.5195 4.46973C16.3763 3.40439 16.1036 2.76182 15.6289 2.28711C15.1543 1.81264 14.5122 1.54067 13.4473 1.39746C12.364 1.25181 10.9399 1.25 8.95801 1.25ZM8.95801 11.458C9.41824 11.458 9.79199 11.8318 9.79199 12.292C9.79182 12.7521 9.41814 13.125 8.95801 13.125C8.49803 13.1248 8.12518 12.752 8.125 12.292C8.125 11.8319 8.49792 11.4582 8.95801 11.458ZM8.95801 4.16699C10.1661 4.16699 11.1455 5.14637 11.1455 6.35449C11.1454 7.15714 10.7132 7.85851 10.0713 8.23828C9.90735 8.33528 9.77177 8.44102 9.68359 8.54492C9.5981 8.64572 9.58301 8.71135 9.58301 8.75V9.79199C9.58283 10.137 9.30308 10.417 8.95801 10.417C8.61309 10.4168 8.33318 10.1369 8.33301 9.79199V8.75C8.33301 8.32859 8.51798 7.98682 8.73047 7.73633C8.94048 7.48885 9.20243 7.29945 9.43457 7.16211C9.71196 6.998 9.89539 6.69732 9.89551 6.35449C9.89551 5.83673 9.47577 5.41699 8.95801 5.41699C8.44039 5.41717 8.02051 5.83683 8.02051 6.35449C8.02033 6.69952 7.74058 6.97949 7.39551 6.97949C7.05059 6.97932 6.77068 6.69941 6.77051 6.35449C6.77051 5.14648 7.75003 4.16717 8.95801 4.16699Z" fill="#6A0BFF"/>
<path d="M9.00586 0C10.9294 -1.03755e-05 12.4371 0.000100341 13.6133 0.158203C14.8172 0.32007 15.768 0.657645 16.5137 1.40332C17.2592 2.14891 17.5969 3.09902 17.7588 4.30273C17.9169 5.4789 17.917 6.98667 17.917 8.91016V9.00586C17.917 10.9293 17.9169 12.4371 17.7588 13.6133C17.5969 14.8172 17.2593 15.768 16.5137 16.5137C15.768 17.2593 14.8172 17.5969 13.6133 17.7588C12.4371 17.9169 10.9293 17.917 9.00586 17.917H8.91016C6.98667 17.917 5.4789 17.9169 4.30273 17.7588C3.09902 17.5969 2.14891 17.2592 1.40332 16.5137C0.657645 15.768 0.32007 14.8172 0.158203 13.6133C0.000100341 12.4371 -1.03755e-05 10.9294 0 9.00586V8.91016C-1.03748e-05 6.98668 7.2132e-05 5.4789 0.158203 4.30273C0.320088 3.09896 0.657719 2.14892 1.40332 1.40332C2.14892 0.657719 3.09896 0.320088 4.30273 0.158203C5.4789 7.21581e-05 6.98668 -1.03748e-05 8.91016 0H9.00586ZM8.95801 1.25C6.97633 1.25 5.55298 1.25182 4.46973 1.39746C3.40439 1.54069 2.76182 1.8124 2.28711 2.28711C1.8124 2.76182 1.54069 3.40439 1.39746 4.46973C1.25182 5.55298 1.25 6.97633 1.25 8.95801C1.25 10.9399 1.25181 12.364 1.39746 13.4473C1.54067 14.5122 1.81264 15.1543 2.28711 15.6289C2.76182 16.1036 3.40439 16.3763 4.46973 16.5195C5.55298 16.6652 6.97636 16.667 8.95801 16.667C10.9399 16.667 12.364 16.6652 13.4473 16.5195C14.5124 16.3763 15.1542 16.1036 15.6289 15.6289C16.1036 15.1542 16.3763 14.5124 16.5195 13.4473C16.6652 12.364 16.667 10.9399 16.667 8.95801C16.667 6.97636 16.6652 5.55298 16.5195 4.46973C16.3763 3.40439 16.1036 2.76182 15.6289 2.28711C15.1543 1.81264 14.5122 1.54067 13.4473 1.39746C12.364 1.25181 10.9399 1.25 8.95801 1.25ZM8.95801 11.458C9.41824 11.458 9.79199 11.8318 9.79199 12.292C9.79182 12.7521 9.41814 13.125 8.95801 13.125C8.49803 13.1248 8.12518 12.752 8.125 12.292C8.125 11.8319 8.49792 11.4582 8.95801 11.458ZM8.95801 4.16699C10.1661 4.16699 11.1455 5.14637 11.1455 6.35449C11.1454 7.15714 10.7132 7.85851 10.0713 8.23828C9.90735 8.33528 9.77177 8.44102 9.68359 8.54492C9.5981 8.64572 9.58301 8.71135 9.58301 8.75V9.79199C9.58283 10.137 9.30308 10.417 8.95801 10.417C8.61309 10.4168 8.33318 10.1369 8.33301 9.79199V8.75C8.33301 8.32859 8.51798 7.98682 8.73047 7.73633C8.94048 7.48885 9.20243 7.29945 9.43457 7.16211C9.71196 6.998 9.89539 6.69732 9.89551 6.35449C9.89551 5.83673 9.47577 5.41699 8.95801 5.41699C8.44039 5.41717 8.02051 5.83683 8.02051 6.35449C8.02033 6.69952 7.74058 6.97949 7.39551 6.97949C7.05059 6.97932 6.77068 6.69941 6.77051 6.35449C6.77051 5.14648 7.75003 4.16717 8.95801 4.16699Z" stroke="#6A0BFF"/>
</svg>
